<svg height="480pt" viewBox="8 -3 480 479" width="480pt" xmlns="http://www.w3.org/2000/svg"><path d="m323 248.277344-59 6.320312c-17.769531 1.238282-56 1.902344-56 1.902344v-152l40-48h160v56c-8.835938 0-16 7.164062-16 16s7.164062 16 16 16v64zm0 0" fill="#fff37a"/><path d="m8 56.5h88v191.777344c-53.105469-8.632813-88-23.226563-88-39.777344zm0 0" fill="#fff37a"/><path d="m472 304.5c0-57.4375-46.5625-104-104-104l-192 104zm0 0" fill="#f9ed9b"/><path d="m176 304.5v41.601562h1.601562c8.277344.34375 14.714844 7.320313 14.398438 15.597657.316406 8.277343-6.121094 15.253906-14.398438 15.601562h-1.601562v31.199219h296v-104zm0 0" fill="#f8cf26"/><path d="m256 352.5c0 8.835938-7.164062 16-16 16s-16-7.164062-16-16 7.164062-16 16-16 16 7.164062 16 16zm0 0" fill="#fff37a"/><path d="m384 360.5c0 8.835938-7.164062 16-16 16s-16-7.164062-16-16 7.164062-16 16-16 16 7.164062 16 16zm0 0" fill="#fff37a"/><path d="m208 208.5-112 39.777344v-152l112-39.777344v48" fill="#f8cf26"/><path d="m208 136.5c0 8.835938-7.164062 16-16 16s-16-7.164062-16-16 7.164062-16 16-16 16 7.164062 16 16zm0 0" fill="#fff37a"/><path d="m160 184.5c0 8.835938-7.164062 16-16 16s-16-7.164062-16-16 7.164062-16 16-16 16 7.164062 16 16zm0 0" fill="#fff37a"/><path d="m96 96.277344 112-39.777344v48c110.457031 0 200-21.488281 200-48s-89.542969-48-200-48-200 21.488281-200 48c0 16.550781 34.894531 31.144531 88 39.777344zm0 0" fill="#f9ed9b"/><path d="m416 203.460938v-58.960938c0-4.417969-3.582031-8-8-8s-8-3.582031-8-8 3.582031-8 8-8 8-3.582031 8-8v-56c0-36.800781-104.640625-56-208-56s-208 19.199219-208 56v152c0 26.679688 51.503906 40.648438 94.71875 47.664062h.113281.328125c.28125.039063.5625.0625.847656.070313.097657 0 .183594-.046875.28125-.046875.816407-.011719 1.625-.152344 2.398438-.414062h.105469l101.207031-35.9375v36.664062c0 4.417969 3.582031 8 8 8 8.6875 0 17.304688-.175781 25.855469-.441406l-61.664063 33.410156c-.441406.277344-.855468.597656-1.230468.960938-1.058594.699218-1.867188 1.71875-2.304688 2.910156-.046875.121094-.046875.265625-.097656.390625-.296875.789062-.464844 1.621093-.496094 2.464843 0 .113282-.0625.199219-.0625.304688v41.601562c0 4.417969 3.582031 8 8 8h1.601562c3.699219.636719 6.402344 3.84375 6.402344 7.597657 0 3.753906-2.703125 6.964843-6.402344 7.601562h-1.601562c-4.417969 0-8 3.582031-8 8v31.199219c0 4.417969 3.582031 8 8 8h296c4.417969 0 8-3.582031 8-8v-104c-.058594-43.207031-24.964844-82.523438-64-101.039062zm-32-74.960938c.042969 10.132812 6.445312 19.148438 16 22.527344v46.191406c-10.378906-3.121094-21.160156-4.710938-32-4.71875-1.328125 0-2.640625.332031-3.808594.96875l-97.695312 52.917969-3.0625.226562c-15.355469 1.070313-31.3125 1.597657-47.433594 1.75v-135.910156c76.414062-.730469 152-12 184-32.984375v26.503906c-9.554688 3.378906-15.957031 12.394532-16 22.527344zm-176-112c126.054688 0 192 26.039062 192 40 0 13.65625-63.257812 38.800781-184 39.894531v-39.894531c0-2.597656-1.265625-5.03125-3.386719-6.53125-2.121093-1.496094-4.835937-1.871094-7.285156-1.003906l-110.03125 39.070312c-58.082031-9.695312-79.296875-24.121094-79.296875-31.535156 0-13.960938 65.945312-40 192-40zm-192 192v-128.734375c17.152344 11.199219 45.480469 18.574219 72 23.253906v135.746094c-52.574219-9.648437-72-23.167969-72-30.265625zm88 28.441406v-135.015625l96-34.089843v46.136718c-2.5625-.949218-5.269531-1.445312-8-1.472656-13.253906 0-24 10.746094-24 24s10.746094 24 24 24c2.730469-.027344 5.4375-.523438 8-1.472656v43.824218zm96-100.441406c0 4.417969-3.582031 8-8 8s-8-3.582031-8-8 3.582031-8 8-8 8 3.582031 8 8zm264 264h-280v-16.175781c9.578125-3.398438 15.980469-12.457031 15.980469-22.621094 0-10.160156-6.402344-19.222656-15.980469-22.617187v-26.585938h280zm-256.433594-104 162.402344-88c11.988281.238281 23.824219 2.730469 34.886719 7.351562 33.101562 13.820313 55.769531 44.90625 58.808593 80.648438zm0 0"/><path d="m240 376.5c13.253906 0 24-10.746094 24-24s-10.746094-24-24-24-24 10.746094-24 24 10.746094 24 24 24zm0-32c4.417969 0 8 3.582031 8 8s-3.582031 8-8 8-8-3.582031-8-8 3.582031-8 8-8zm0 0"/><path d="m368 384.5c13.253906 0 24-10.746094 24-24s-10.746094-24-24-24-24 10.746094-24 24 10.746094 24 24 24zm0-32c4.417969 0 8 3.582031 8 8s-3.582031 8-8 8-8-3.582031-8-8 3.582031-8 8-8zm0 0"/><path d="m416 368.5h16v16h-16zm0 0"/><path d="m432 328.5h16v16h-16zm0 0"/><path d="m280 368.5h16v16h-16zm0 0"/><path d="m304 328.5h16v16h-16zm0 0"/><path d="m144 160.5c-13.253906 0-24 10.746094-24 24s10.746094 24 24 24 24-10.746094 24-24-10.746094-24-24-24zm0 32c-4.417969 0-8-3.582031-8-8s3.582031-8 8-8 8 3.582031 8 8-3.582031 8-8 8zm0 0"/><path d="m120 120.5h16v16h-16zm0 0"/></svg>